<svg enable-background="new 0 0 64 64" viewBox="0 0 64 64" xmlns="http://www.w3.org/2000/svg"><circle cx="31.8" cy="32" fill="#77b3d4" r="32"/><path d="m52 48c0 1.1-.9 2-2 2h-36c-1.1 0-2-.9-2-2 0-1.1.9-2 2-2h36c1.1 0 2 .9 2 2z" fill="#231f20" opacity=".2"/><path d="m52 46c0 1.1-.9 2-2 2h-36c-1.1 0-2-.9-2-2 0-1.1.9-2 2-2h36c1.1 0 2 .9 2 2z" fill="#e0995e"/><path d="m23 20h-4c-1.7 0-3 1.3-3 3v17 1 3h3 4 3v-3-1-17c0-1.7-1.3-3-3-3z" fill="#c75c5c"/><path d="m45 16h-4c-1.7 0-3 1.3-3 3v21 1 3h3 4 3v-3-1-21c0-1.7-1.3-3-3-3z" fill="#e0e0d1"/><path d="m16 24h10v3h-10z" fill="#e0995e"/><path d="m16 37h10v3h-10z" fill="#e0995e"/><path d="m38 37h10v3h-10z" fill="#fff"/><path d="m38 20h10v3h-10z" fill="#fff"/><path d="m40 40v-23.8c-1.2.4-2 1.5-2 2.8v21 1 3h2v-3z" fill="#231f20" opacity=".2"/><path d="m26 40v-17c0-1.3-.8-2.4-2-2.8v19.8 1 3h2v-3z" fill="#231f20" opacity=".2"/><path d="m35 12h-6c-1.7 0-3 1.3-3 3v25 1 3h3 6 3v-3-1-25c0-1.7-1.3-3-3-3z" fill="#4f5d73"/><g fill="#76c2af"><path d="m26 16h12v3h-12z"/><path d="m26 37h12v3h-12z"/></g></svg>