<svg enable-background="new 0 0 64 64" viewBox="0 0 64 64" xmlns="http://www.w3.org/2000/svg"><circle cx="32" cy="32" fill="#77b3d4" r="32"/><path d="m48 50c0 2.2-1.8 4-4 4h-24c-2.2 0-4-1.8-4-4v-32c0-2.2 1.8-4 4-4h24c2.2 0 4 1.8 4 4z" fill="#231f20" opacity=".2"/><path d="m48 48c0 2.2-1.8 4-4 4h-24c-2.2 0-4-1.8-4-4v-32c0-2.2 1.8-4 4-4h24c2.2 0 4 1.8 4 4z" fill="#4f5d73"/><path d="m35 14v7.8c0 .3.2.5.4.6h.3c.2 0 .3-.1.5-.2l2.9-2.8 2.9 2.8c.1.1.3.2.5.2h.3c.2-.1.4-.3.4-.6v-7.8z" fill="#231f20" opacity=".2"/><path d="m35 12v7.8c0 .3.2.5.4.6h.3c.2 0 .3-.1.5-.2l2.9-2.8 2.9 2.8c.1.1.3.2.5.2h.3c.2-.1.4-.3.4-.6v-7.8z" fill="#c75c5c"/><path d="m20 12h3v40h-3z" fill="#e0e0d1"/></svg>