<svg enable-background="new 0 0 64 64" viewBox="0 0 64 64" xmlns="http://www.w3.org/2000/svg"><circle cx="32" cy="32" fill="#77b3d4" r="32"/><path d="m32 60c-1.1 0-2-.9-2-2v-44c0-1.1.9-2 2-2s2 .9 2 2v44c0 1.1-.9 2-2 2z" fill="#231f20" opacity=".2"/><path d="m32 12v44" fill="none" stroke="#f5cf87" stroke-linecap="round" stroke-miterlimit="10" stroke-width="4"/><path d="m18.5 16c-.4 0-1 .2-1.3.5l-5 4.9c-.3.3-.3.8 0 1.1l5 4.9c.3.3.9.5 1.3.5h20.8c.4 0 .8-.4.8-.8v-10.3c0-.4-.3-.8-.8-.8z" fill="#231f20" opacity=".2"/><path d="m49.5 42c.4 0 1-.2 1.3-.5l5-4.9c.3-.3.3-.8 0-1.1l-5-4.9c-.3-.3-.9-.5-1.3-.5h-24.7c-.4 0-.8.4-.8.8v10.4c0 .4.3.8.8.8h24.7z" fill="#231f20" opacity=".2"/><path d="m18.5 14c-.4 0-1 .2-1.3.5l-5 4.9c-.3.3-.3.8 0 1.1l5 4.9c.3.3.9.5 1.3.5h20.8c.4 0 .8-.4.8-.8v-10.3c0-.4-.3-.8-.8-.8z" fill="#4f5d73"/><path d="m49.5 40c.4 0 1-.2 1.3-.5l5-4.9c.3-.3.3-.8 0-1.1l-5-4.9c-.3-.3-.9-.5-1.3-.5h-24.7c-.4 0-.8.4-.8.8v10.4c0 .4.3.8.8.8h24.7z" fill="#fff"/></svg>