<svg enable-background="new 0 0 64 64" viewBox="0 0 64 64" xmlns="http://www.w3.org/2000/svg"><circle cx="32" cy="32" fill="#e0995e" r="32"/><path d="m47 18h-4c-.2 0-.5.1-.7.2l-13.8 12.2c-.7-.2-1.8-.4-2.5-.4-5.5 0-10 4.5-10 10s4.5 10 10 10 10-4.5 10-10c0-1.6-.3-2.7-.7-3.6l3.4-1.2c.4-.1.7-.5.7-1l-.1-3.8 3.8-.3c.5 0 .9-.5.9-1l.1-4.6 3-.7c.5-.1.8-.5.8-1v-4c.1-.4-.3-.8-.9-.8zm-24 22c1.2 0 2.2.7 2.7 1.7.2.4.3.8.3 1.3 0 1.7-1.3 3-3 3s-3-1.3-3-3 1.3-3 3-3z" fill="#231f20" opacity=".2"/><path d="m47 16h-4c-.2 0-.5.1-.7.2l-13.8 12.2c-.7-.2-1.8-.4-2.5-.4-5.5 0-10 4.5-10 10s4.5 10 10 10 10-4.5 10-10c0-1.6-.3-2.7-.7-3.6l3.4-1.2c.4-.1.7-.5.7-1l-.1-3.8 3.8-.3c.5 0 .9-.5.9-1l.1-4.6 3-.7c.5-.1.8-.5.8-1v-4c.1-.4-.3-.8-.9-.8zm-24 22c1.2 0 2.2.7 2.7 1.7.2.4.3.8.3 1.3 0 1.7-1.3 3-3 3s-3-1.3-3-3 1.3-3 3-3z" fill="#fff"/></svg>