<svg enable-background="new 0 0 64 64" viewBox="0 0 64 64" xmlns="http://www.w3.org/2000/svg"><circle cx="32" cy="32" fill="#c75c5c" r="32"/><path d="m52 50c0 2.2-1.8 4-4 4h-32c-2.2 0-4-1.8-4-4v-28c0-2.2 1.8-4 4-4h32c2.2 0 4 1.8 4 4z" fill="#231f20" opacity=".2"/><path d="m52 48c0 2.2-1.8 4-4 4h-32c-2.2 0-4-1.8-4-4v-28c0-2.2 1.8-4 4-4h32c2.2 0 4 1.8 4 4z" fill="#e0e0d1"/><path d="m52 46c0 2.2-1.8 4-4 4h-32c-2.2 0-4-1.8-4-4v-28c0-2.2 1.8-4 4-4h32c2.2 0 4 1.8 4 4z" fill="#231f20" opacity=".2"/><path d="m52 44c0 2.2-1.8 4-4 4h-32c-2.2 0-4-1.8-4-4v-28c0-2.2 1.8-4 4-4h32c2.2 0 4 1.8 4 4z" fill="#e0e0d1"/><g fill="#4f5d73"><path d="m16 24h12v12h-12z"/><path d="m36 27h12v1h-12z"/><path d="m36 25h12v1h-12z"/><path d="m32 24h3v4h-3z"/><path d="m32 30h16v1h-16z"/><path d="m32 32h16v1h-16z"/><path d="m32 34h16v1h-16z"/><path d="m32 36h16v1h-16z"/><path d="m35.9 39h12.1v1h-12.1z"/><path d="m16 39h12v1h-12z"/><path d="m16 41h12v1h-12z"/><path d="m16 43h12v1h-12z"/><path d="m16 45h12v1h-12z"/><path d="m32 41h16v1h-16z"/><path d="m32 43h16v1h-16z"/><path d="m32 45h16v1h-16z"/></g><circle cx="24" cy="28" fill="#e0e0d1" r="2"/><path d="m16 16h32v4h-32z" fill="#4f5d73"/><path d="m27 35v-2.4l-.8-.8c-.5-.5-1.3-.5-1.8 0l-.8.8-1.9-1.9c-1-1-2.6-1-3.5 0l-1.2 1.2v3.1z" fill="#e0e0d1"/></svg>