<svg enable-background="new 0 0 64 64" viewBox="0 0 64 64" xmlns="http://www.w3.org/2000/svg"><circle cx="32" cy="32" fill="#4f5d73" r="32"/><path d="m43.9 47.5c-3.8-1.7-5.2-4.2-5.6-6.5 2.8-2.2 4.9-5.8 6.1-9.6 1.2-1.6 2-3.2 2-4.6 0-1-.3-1.6-1-2.2-.2-8.1-5.9-14.6-13-14.7-.1 0-.1 0-.2 0 0 0 0 0-.1 0-7.1 0-12.8 6.4-13.1 14.4-.9.5-1.4 1.3-1.4 2.5 0 1.6 1 3.6 2.7 5.4 1.2 3.3 3.1 6.4 5.5 8.4-.4 2.3-1.7 5-5.7 6.8-2.2.9-6.1 1.8-7.8 2.6 4.3 5 12.6 8 19.6 8h.1c7 0 15.3-3 19.7-7.8-1.7-.9-5.6-1.7-7.8-2.7z" fill="#231f20" opacity=".2"/><path d="m43.9 45.5c-3.8-1.7-5.2-4.2-5.6-6.5 2.8-2.2 4.9-5.8 6.1-9.6 1.2-1.6 2-3.2 2-4.6 0-1-.3-1.6-1-2.2-.2-8.1-5.9-14.6-13-14.7-.1 0-.1 0-.2 0 0 0 0 0-.1 0-7 .1-12.7 6.5-13.1 14.5-.9.5-1.4 1.3-1.4 2.5 0 1.6 1 3.6 2.7 5.4 1.2 3.3 3.1 6.4 5.5 8.4-.4 2.3-1.7 5-5.7 6.8-2.2.9-6.1 1.8-7.8 2.6 4.3 4.9 12.6 7.9 19.6 7.9h.1c7 0 15.3-3 19.7-7.8-1.7-.9-5.6-1.7-7.8-2.7z" fill="#fff"/></svg>